<mxfile host="65bd71144e">
    <diagram id="dTUlwlR4AVqg5zI6PZbp" name="Page-1">
        <mxGraphModel dx="1109" dy="573" grid="1" gridSize="10" guides="1" tooltips="1" connect="1" arrows="1" fold="1" page="1" pageScale="1" pageWidth="1169" pageHeight="827" math="0" shadow="0">
            <root>
                <mxCell id="0"/>
                <mxCell id="1" parent="0"/>
                <mxCell id="zqfiMzpqrbCUpQQjLzXI-3" value="" style="rounded=0;whiteSpace=wrap;html=1;strokeColor=none;fillColor=#FCFCFC;" parent="1" vertex="1">
                    <mxGeometry x="560" width="600" height="827" as="geometry"/>
                </mxCell>
                <mxCell id="zqfiMzpqrbCUpQQjLzXI-1" value="" style="rounded=0;whiteSpace=wrap;html=1;strokeColor=none;fillColor=#E6E6E6;" parent="1" vertex="1">
                    <mxGeometry width="570" height="827" as="geometry"/>
                </mxCell>
            </root>
        </mxGraphModel>
    </diagram>
</mxfile>